<svg xmlns:dc="http://purl.org/dc/elements/1.1/" xmlns:cc="http://creativecommons.org/ns#" xmlns:rdf="http://www.w3.org/1999/02/22-rdf-syntax-ns#" xmlns:svg="http://www.w3.org/2000/svg" xmlns="http://www.w3.org/2000/svg" xmlns:sodipodi="http://sodipodi.sourceforge.net/DTD/sodipodi-0.dtd" xmlns:inkscape="http://www.inkscape.org/namespaces/inkscape" version="1.1" x="0px" y="0px" viewBox="0 0 100 125"><g transform="translate(0,-952.36218)"><path style="text-indent:0;text-transform:none;direction:ltr;block-progression:tb;baseline-shift:baseline;color:#000000;enable-background:accumulate;" d="m 24.523356,1044.3568 a 3.000043,3.0005571 0 0 1 -2.78165,-3.7306 l 6.76448,-27.189 -21.4314101,-17.99956 a 3.000043,3.0005571 0 0 1 1.70693,-5.29026 l 27.9430201,-1.96014 10.49444,-25.94551 a 3.000043,3.0005571 0 0 1 5.56331,0 l 10.49444,25.94551 27.92195,1.96014 a 3.000043,3.0005571 0 0 1 1.728,5.29026 l -21.45249,18.02056 6.76449,27.168 a 3.000043,3.0005571 0 0 1 -4.48859,3.2669 l -23.74946,-14.838 -23.74946,14.838 a 3.000043,3.0005571 0 0 1 -1.728,0.4637 z m 4.82576,-9.4635 19.05014,-11.9084 a 3.000043,3.0005571 0 0 1 3.18205,0 l 19.05014,11.8873 -5.43687,-21.7933 a 3.000043,3.0005571 0 0 1 0.99044,-3.014 l 17.1957,-14.45866 -22.40078,-1.5596 a 3.000043,3.0005571 0 0 1 -2.57092,-1.8548 l -8.4082,-20.82387 -8.42926,20.82387 a 3.000043,3.0005571 0 0 1 -2.57093,1.8548 l -22.3797,1.5596 17.1957,14.45866 a 3.000043,3.0005571 0 0 1 0.96937,3.014 l -5.43688,21.8144 z" fill="#000000" fill-opacity="1" stroke="none" marker="none" visibility="visible" display="inline" overflow="visible"/></g><text x="0" y="115" fill="#000000" font-size="5px" font-weight="bold" font-family="'Helvetica Neue', Helvetica, Arial-Unicode, Arial, Sans-serif">Created by Aya Sofya</text><text x="0" y="120" fill="#000000" font-size="5px" font-weight="bold" font-family="'Helvetica Neue', Helvetica, Arial-Unicode, Arial, Sans-serif">from the Noun Project</text></svg>