<svg xmlns="http://www.w3.org/2000/svg" data-name="Your Icon" viewBox="0 0 85 101.3875" x="0px" y="0px"><title>star</title><path d="M48.41,77.75L27.17,90.08a3.06,3.06,0,0,1-4.53-3.29l5.2-24a3.06,3.06,0,0,0-1-2.93L8.53,43.42a3.06,3.06,0,0,1,1.7-5.33l24.48-2.7a3.06,3.06,0,0,0,2.46-1.79l10-22.33a3.06,3.06,0,0,1,5.59,0L62.8,33.6a3.06,3.06,0,0,0,2.45,1.79L89.77,38.1a3.06,3.06,0,0,1,1.73,5.3L73.37,60a3.06,3.06,0,0,0-.93,2.87l4.9,24a3.06,3.06,0,0,1-4.54,3.26L51.48,77.75A3.06,3.06,0,0,0,48.41,77.75Z" transform="translate(-7.5 -9.45)"/><text x="0" y="96.11" fill="#000000" font-size="5px" font-weight="bold" font-family="'Helvetica Neue', Helvetica, Arial-Unicode, Arial, Sans-serif">Created by VectorBakery</text><text x="0" y="101.11" fill="#000000" font-size="5px" font-weight="bold" font-family="'Helvetica Neue', Helvetica, Arial-Unicode, Arial, Sans-serif">from the Noun Project</text></svg>